<svg width="360" height="640" viewBox="0 0 360 640" fill="none" xmlns="http://www.w3.org/2000/svg">
<rect width="360" height="640" fill="white"/>
<path d="M261.5 296L263.179 309.418L274 311.5L263.179 313.582L261.5 327L259.821 313.582L249 311.5L259.821 309.418L261.5 296Z" fill="#FF6F00" fill-opacity="0.4"/>
<path d="M334.182 270.233C334.286 269.356 335.557 269.356 335.661 270.233L336.761 279.492C336.796 279.787 337.002 280.032 337.286 280.118L344.477 282.287C345.184 282.5 345.184 283.5 344.477 283.713L337.286 285.882C337.002 285.968 336.796 286.213 336.761 286.508L335.661 295.767C335.557 296.644 334.286 296.644 334.182 295.767L333.082 286.508C333.047 286.213 332.841 285.968 332.558 285.882L325.366 283.713C324.659 283.5 324.659 282.5 325.366 282.287L332.558 280.118C332.841 280.032 333.047 279.787 333.082 279.492L334.182 270.233Z" fill="#FF6F00" fill-opacity="0.4"/>
<path d="M315.007 64.3649C315.147 63.1887 316.853 63.1887 316.993 64.3649L318.468 76.7925C318.515 77.1876 318.792 77.5172 319.173 77.6321L328.825 80.5426C329.773 80.8286 329.773 82.1714 328.825 82.4574L319.173 85.3679C318.792 85.4828 318.515 85.8124 318.468 86.2075L316.993 98.6351C316.853 99.8113 315.147 99.8113 315.007 98.6351L313.532 86.2075C313.485 85.8124 313.208 85.4828 312.827 85.3679L303.175 82.4574C302.227 82.1714 302.227 80.8286 303.175 80.5426L312.827 77.6321C313.208 77.5172 313.485 77.1876 313.532 76.7925L315.007 64.3649Z" fill="#FF6F00" fill-opacity="0.4"/>
<path d="M298.5 95L300.179 108.418L311 110.5L300.179 112.582L298.5 126L296.821 112.582L286 110.5L296.821 108.418L298.5 95Z" fill="#FFB800" fill-opacity="0.4"/>
<path d="M278.182 347.233C278.286 346.356 279.557 346.356 279.661 347.233L280.761 356.492C280.796 356.787 281.002 357.032 281.286 357.118L288.477 359.287C289.184 359.5 289.184 360.5 288.477 360.713L281.286 362.882C281.002 362.968 280.796 363.213 280.761 363.508L279.661 372.767C279.557 373.644 278.286 373.644 278.182 372.767L277.082 363.508C277.047 363.213 276.841 362.968 276.558 362.882L269.366 360.713C268.659 360.5 268.659 359.5 269.366 359.287L276.558 357.118C276.841 357.032 277.047 356.787 277.082 356.492L278.182 347.233Z" fill="#FFB800" fill-opacity="0.4"/>
<path d="M25.0908 524.721C25.1948 523.845 26.4666 523.845 26.5706 524.721L27.6699 533.981C27.7048 534.275 27.9109 534.521 28.1947 534.607L35.3865 536.775C36.0931 536.988 36.0931 537.989 35.3865 538.202L28.1947 540.371C27.9109 540.456 27.7048 540.702 27.6699 540.996L26.5706 550.256C26.4666 551.132 25.1948 551.132 25.0908 550.256L23.9915 540.996C23.9566 540.702 23.7505 540.456 23.4667 540.371L16.2749 538.202C15.5683 537.989 15.5683 536.988 16.2749 536.775L23.4667 534.607C23.7505 534.521 23.9566 534.275 23.9915 533.981L25.0908 524.721Z" fill="#FFB800" fill-opacity="0.4"/>
<path d="M306.007 310.365C306.147 309.189 307.853 309.189 307.993 310.365L309.468 322.793C309.515 323.188 309.792 323.517 310.173 323.632L319.825 326.543C320.773 326.829 320.773 328.171 319.825 328.457L310.173 331.368C309.792 331.483 309.515 331.812 309.468 332.207L307.993 344.635C307.853 345.811 306.147 345.811 306.007 344.635L304.532 332.207C304.485 331.812 304.208 331.483 303.827 331.368L294.175 328.457C293.227 328.171 293.227 326.829 294.175 326.543L303.827 323.632C304.208 323.517 304.485 323.188 304.532 322.793L306.007 310.365Z" fill="#FFB800" fill-opacity="0.4"/>
<path d="M59.5 106L61.1794 119.418L72 121.5L61.1794 123.582L59.5 137L57.8206 123.582L47 121.5L57.8206 119.418L59.5 106Z" fill="#FFA300" fill-opacity="0.4"/>
<path d="M282.182 57.2326C282.286 56.3563 283.557 56.3563 283.661 57.2326L284.761 66.4925C284.796 66.7868 285.002 67.0324 285.286 67.118L292.477 69.2866C293.184 69.4997 293.184 70.5003 292.477 70.7134L285.286 72.882C285.002 72.9676 284.796 73.2132 284.761 73.5075L283.661 82.7673C283.557 83.6437 282.286 83.6437 282.182 82.7674L281.082 73.5075C281.047 73.2132 280.841 72.9676 280.558 72.882L273.366 70.7134C272.659 70.5003 272.659 69.4997 273.366 69.2866L280.558 67.118C280.841 67.0324 281.047 66.7868 281.082 66.4925L282.182 57.2326Z" fill="#FFA300" fill-opacity="0.4"/>
<path d="M26.007 341.365C26.1466 340.189 27.8534 340.189 27.993 341.365L29.4684 353.793C29.5153 354.188 29.7918 354.517 30.1727 354.632L39.8249 357.543C40.7733 357.829 40.7733 359.171 39.8249 359.457L30.1727 362.368C29.7918 362.483 29.5153 362.812 29.4684 363.207L27.993 375.635C27.8534 376.811 26.1466 376.811 26.007 375.635L24.5316 363.207C24.4847 362.812 24.2082 362.483 23.8273 362.368L14.1751 359.457C13.2267 359.171 13.2267 357.829 14.1751 357.543L23.8273 354.632C24.2082 354.517 24.4847 354.188 24.5316 353.793L26.007 341.365Z" fill="#FF6F00" fill-opacity="0.4"/>
<path d="M37.007 19.3649C37.1466 18.1887 38.8534 18.1887 38.993 19.3649L40.4684 31.7925C40.5153 32.1876 40.7918 32.5172 41.1727 32.6321L50.8249 35.5426C51.7733 35.8286 51.7733 37.1714 50.8249 37.4574L41.1727 40.3679C40.7918 40.4828 40.5153 40.8124 40.4684 41.2075L38.993 53.6351C38.8534 54.8113 37.1466 54.8113 37.007 53.6351L35.5316 41.2075C35.4847 40.8124 35.2082 40.4828 34.8273 40.3679L25.1751 37.4574C24.2267 37.1714 24.2267 35.8286 25.1751 35.5426L34.8273 32.6321C35.2082 32.5172 35.4847 32.1876 35.5316 31.7925L37.007 19.3649Z" fill="#FF6F00" fill-opacity="0.4"/>
<path opacity="0.4" d="M24.5 422L26.1794 435.418L37 437.5L26.1794 439.582L24.5 453L22.8206 439.582L12 437.5L22.8206 435.418L24.5 422Z" fill="#FFB800" fill-opacity="0.4"/>
<path opacity="0.4" d="M118.5 31L120.179 44.4176L131 46.5L120.179 48.5824L118.5 62L116.821 48.5824L106 46.5L116.821 44.4176L118.5 31Z" fill="#FFB800" fill-opacity="0.4"/>
<path d="M48.1817 381.233C48.2857 380.356 49.5574 380.356 49.6615 381.233L50.7607 390.492C50.7957 390.787 51.0018 391.032 51.2855 391.118L58.4774 393.287C59.184 393.5 59.184 394.5 58.4774 394.713L51.2855 396.882C51.0018 396.968 50.7957 397.213 50.7607 397.508L49.6615 406.767C49.5574 407.644 48.2857 407.644 48.1817 406.767L47.0824 397.508C47.0474 397.213 46.8414 396.968 46.5576 396.882L39.3658 394.713C38.6591 394.5 38.6591 393.5 39.3658 393.287L46.5576 391.118C46.8414 391.032 47.0474 390.787 47.0824 390.492L48.1817 381.233Z" fill="#FFA300" fill-opacity="0.4"/>
<path d="M30.007 133.365C30.1466 132.189 31.8534 132.189 31.993 133.365L33.4684 145.793C33.5153 146.188 33.7918 146.517 34.1727 146.632L43.8249 149.543C44.7733 149.829 44.7733 151.171 43.8249 151.457L34.1727 154.368C33.7918 154.483 33.5153 154.812 33.4684 155.207L31.993 167.635C31.8534 168.811 30.1466 168.811 30.007 167.635L28.5316 155.207C28.4847 154.812 28.2082 154.483 27.8273 154.368L18.1751 151.457C17.2267 151.171 17.2267 149.829 18.1751 149.543L27.8273 146.632C28.2082 146.517 28.4847 146.188 28.5316 145.793L30.007 133.365Z" fill="#FFA300" fill-opacity="0.4"/>
<path d="M327.182 558.233C327.286 557.356 328.557 557.356 328.661 558.233L329.761 567.492C329.796 567.787 330.002 568.032 330.286 568.118L337.477 570.287C338.184 570.5 338.184 571.5 337.477 571.713L330.286 573.882C330.002 573.968 329.796 574.213 329.761 574.508L328.661 583.767C328.557 584.644 327.286 584.644 327.182 583.767L326.082 574.508C326.047 574.213 325.841 573.968 325.558 573.882L318.366 571.713C317.659 571.5 317.659 570.5 318.366 570.287L325.558 568.118C325.841 568.032 326.047 567.787 326.082 567.492L327.182 558.233Z" fill="#FF6F00" fill-opacity="0.4"/>
<path d="M322.5 479L324.179 492.418L335 494.5L324.179 496.582L322.5 510L320.821 496.582L310 494.5L320.821 492.418L322.5 479Z" fill="#FFA300" fill-opacity="0.4"/>
<path d="M290.007 528.365C290.147 527.189 291.853 527.189 291.993 528.365L293.468 540.793C293.515 541.188 293.792 541.517 294.173 541.632L303.825 544.543C304.773 544.829 304.773 546.171 303.825 546.457L294.173 549.368C293.792 549.483 293.515 549.812 293.468 550.207L291.993 562.635C291.853 563.811 290.147 563.811 290.007 562.635L288.532 550.207C288.485 549.812 288.208 549.483 287.827 549.368L278.175 546.457C277.227 546.171 277.227 544.829 278.175 544.543L287.827 541.632C288.208 541.517 288.485 541.188 288.532 540.793L290.007 528.365Z" fill="#FFA300" fill-opacity="0.4"/>
<path d="M48.007 573.365C48.1466 572.189 49.8534 572.189 49.993 573.365L51.4684 585.793C51.5153 586.188 51.7918 586.517 52.1727 586.632L61.8249 589.543C62.7733 589.829 62.7733 591.171 61.8249 591.457L52.1727 594.368C51.7918 594.483 51.5153 594.812 51.4684 595.207L49.993 607.635C49.8534 608.811 48.1466 608.811 48.007 607.635L46.5316 595.207C46.4847 594.812 46.2082 594.483 45.8273 594.368L36.1751 591.457C35.2267 591.171 35.2267 589.829 36.1751 589.543L45.8273 586.632C46.2082 586.517 46.4847 586.188 46.5316 585.793L48.007 573.365Z" fill="#FFA300" fill-opacity="0.4"/>
<path opacity="0.4" d="M303.5 243L305.179 256.418L316 258.5L305.179 260.582L303.5 274L301.821 260.582L291 258.5L301.821 256.418L303.5 243Z" fill="#FFB800" fill-opacity="0.4"/>
</svg>
